<svg width="24" height="24" xmlns="http://www.w3.org/2000/svg" fill-rule="evenodd" clip-rule="evenodd"><path d="M17.422 20.394c-.177-.415-.219-.698-.289-1.118.625-.697 1.189-1.432 1.692-2.204.58-.196 1.271-.438 2.281-.956-.795 1.756-2.08 3.239-3.684 4.278m-8.181 1.212c1.039-.558 1.89-1.193 2.831-1.899 1.012.253 2.079.395 3.194.443l.001.007c.083.435.205.803.362 1.153-1.987.777-4.182.93-6.388.296m-7.24-9.619l1.273 1.217c-.194 1.076-.248 2.069-.234 3.214-.659-1.334-1.04-2.83-1.04-4.418l.001-.013m11.371-9.882l-.758 1.737c-2.139.56-3.384 1.125-5.214 2.107l-2.863-.586c2.128-2.389 5.337-3.74 8.835-3.258m-1.804 11.769c-1.083-.726-1.941-1.464-3.466-2.727l.546-3.576c1.446-.848 2.566-1.239 4.477-1.849.999.687 1.984 1.428 2.934 2.216l-.002.023c-.138 1.739-.42 3.066-.845 4.495-1.196.524-2.41.998-3.644 1.418m-4.758 6.661c-.555-.339-1.072-.728-1.549-1.164-.256-1.921-.361-3.89-.003-5.865l.001-.004 1.716-.745c1.211 1.126 2.346 2.004 3.676 2.928l.063 2.525c-1.323 1.046-2.369 1.738-3.904 2.325m15.108-7.311c-1 .722-1.776 1.225-3.025 1.683l-1.734-2.007c.451-1.449.738-3 .866-4.727l2.499-1.381c1.147 1.872 1.681 4.066 1.394 6.432m-9.918-13.224c-6.623 0-12 5.377-12 12s5.377 12 12 12 12-5.377 12-12-5.377-12-12-12"/></svg>